<svg width="56" height="56" viewBox="0 0 56 56" fill="none" xmlns="http://www.w3.org/2000/svg">
<path d="M28 56C43.464 56 56 43.464 56 28C56 12.536 43.464 0 28 0C12.536 0 0 12.536 0 28C0 43.464 12.536 56 28 56Z" fill="url(#paint0_linear_20005153_1708)"/>
<path fill-rule="evenodd" clip-rule="evenodd" d="M11.2 16.8049C11.2 13.7094 13.698 11.1999 16.805 11.1999H39.195C42.2906 11.1999 44.8 13.6979 44.8 16.8049V39.195C44.8 42.2905 42.302 44.7999 39.195 44.7999H16.805C13.7094 44.7999 11.2 42.3019 11.2 39.195V16.8049ZM30.184 17.585V28.251C30.184 29.365 31.0864 30.268 32.1995 30.268H38.4165C39.5293 30.268 40.432 29.3649 40.432 28.251V17.585C40.432 16.4709 39.5296 15.568 38.4165 15.568H32.1995C31.0867 15.568 30.184 16.471 30.184 17.585ZM15.568 36.6534V17.5826C15.568 16.4699 16.4707 15.568 17.5835 15.568H23.8005C24.9136 15.568 25.816 16.47 25.816 17.5826V36.6534C25.816 37.766 24.9133 38.668 23.8005 38.668H17.5835C16.4704 38.668 15.568 37.766 15.568 36.6534Z" fill="white"/>
<defs>
<linearGradient id="paint0_linear_20005153_1708" x1="0" y1="0" x2="0" y2="56" gradientUnits="userSpaceOnUse">
<stop stop-color="#0091E6"/>
<stop offset="1" stop-color="#0079BF"/>
</linearGradient>
</defs>
</svg>
